<mxfile host="65bd71144e">
    <diagram id="DHYC8kaft9ZNbASZwSIB" name="第 1 页">
        <mxGraphModel dx="994" dy="1522" grid="0" gridSize="10" guides="1" tooltips="1" connect="1" arrows="1" fold="1" page="1" pageScale="1" pageWidth="1169" pageHeight="827" background="#ffffff" math="0" shadow="0">
            <root>
                <mxCell id="0"/>
                <mxCell id="1" parent="0"/>
                <mxCell id="47" value="" style="edgeStyle=orthogonalEdgeStyle;html=1;fontFamily=Times New Roman;fontSize=24;fontColor=#000000;strokeColor=#000000;strokeWidth=3;" parent="1" source="2" target="40" edge="1">
                    <mxGeometry relative="1" as="geometry"/>
                </mxCell>
                <mxCell id="2" value="&lt;font face=&quot;Times New Roman&quot; style=&quot;font-size: 20px&quot; color=&quot;#000000&quot;&gt;&lt;b&gt;&lt;i&gt;In-situ&lt;/i&gt; measurement&lt;/b&gt;&lt;/font&gt;" style="rounded=1;whiteSpace=wrap;html=1;fillColor=#E6E6E6;strokeColor=#000000;" parent="1" vertex="1">
                    <mxGeometry x="252" y="130" width="261" height="46" as="geometry"/>
                </mxCell>
                <mxCell id="15" style="edgeStyle=orthogonalEdgeStyle;html=1;fontFamily=Times New Roman;fontSize=20;fontColor=#000000;strokeColor=#000000;strokeWidth=3;" parent="1" source="5" target="13" edge="1">
                    <mxGeometry relative="1" as="geometry"/>
                </mxCell>
                <mxCell id="16" style="edgeStyle=orthogonalEdgeStyle;html=1;fontFamily=Times New Roman;fontSize=20;fontColor=#000000;strokeColor=#000000;strokeWidth=3;" parent="1" source="5" target="14" edge="1">
                    <mxGeometry relative="1" as="geometry"/>
                </mxCell>
                <mxCell id="5" value="&lt;font color=&quot;#000000&quot; face=&quot;Times New Roman&quot;&gt;&lt;span style=&quot;font-size: 20px&quot;&gt;&lt;b&gt;Several pairs of Kd(PAR)/TSS &lt;br&gt;and Surface Reflectance&lt;/b&gt;&lt;/span&gt;&lt;/font&gt;" style="whiteSpace=wrap;html=1;fillColor=#E6E6E6;strokeColor=#000000;rounded=1;" parent="1" vertex="1">
                    <mxGeometry x="513" y="209" width="400" height="54" as="geometry"/>
                </mxCell>
                <mxCell id="947" style="edgeStyle=orthogonalEdgeStyle;html=1;fontFamily=Times New Roman;fontSize=16;fontColor=#000000;strokeColor=#000000;strokeWidth=3;" parent="1" source="13" target="946" edge="1">
                    <mxGeometry relative="1" as="geometry"/>
                </mxCell>
                <mxCell id="13" value="&lt;font color=&quot;#000000&quot; face=&quot;Times New Roman&quot;&gt;&lt;span style=&quot;font-size: 20px&quot;&gt;&lt;b&gt;Training sets (80%)&lt;/b&gt;&lt;/span&gt;&lt;/font&gt;" style="rounded=1;whiteSpace=wrap;html=1;fillColor=#E6E6E6;strokeColor=#000000;" parent="1" vertex="1">
                    <mxGeometry x="435" y="306" width="261" height="46" as="geometry"/>
                </mxCell>
                <mxCell id="948" style="edgeStyle=orthogonalEdgeStyle;html=1;fontFamily=Times New Roman;fontSize=16;fontColor=#000000;strokeColor=#000000;strokeWidth=3;" parent="1" source="14" target="946" edge="1">
                    <mxGeometry relative="1" as="geometry"/>
                </mxCell>
                <mxCell id="14" value="&lt;font color=&quot;#000000&quot; face=&quot;Times New Roman&quot;&gt;&lt;span style=&quot;font-size: 20px&quot;&gt;&lt;b&gt;Testing sets (20%)&lt;/b&gt;&lt;/span&gt;&lt;/font&gt;" style="rounded=1;whiteSpace=wrap;html=1;fillColor=#E6E6E6;strokeColor=#000000;" parent="1" vertex="1">
                    <mxGeometry x="734" y="306" width="261" height="46" as="geometry"/>
                </mxCell>
                <mxCell id="39" style="edgeStyle=orthogonalEdgeStyle;html=1;entryX=1;entryY=0.5;entryDx=0;entryDy=0;fontFamily=Times New Roman;fontSize=20;fontColor=#000000;strokeColor=#000000;strokeWidth=3;" parent="1" source="30" target="37" edge="1">
                    <mxGeometry relative="1" as="geometry"/>
                </mxCell>
                <mxCell id="30" value="&lt;font color=&quot;#000000&quot; face=&quot;Times New Roman&quot;&gt;&lt;span style=&quot;font-size: 20px&quot;&gt;&lt;b&gt;Dynamic lake boundary&lt;/b&gt;&lt;/span&gt;&lt;/font&gt;" style="rounded=1;whiteSpace=wrap;html=1;fillColor=#E6E6E6;strokeColor=#000000;" parent="1" vertex="1">
                    <mxGeometry x="969" y="43.75" width="155" height="61.5" as="geometry"/>
                </mxCell>
                <mxCell id="36" style="edgeStyle=orthogonalEdgeStyle;html=1;entryX=0;entryY=0.5;entryDx=0;entryDy=0;fontFamily=Times New Roman;fontSize=20;fontColor=#000000;strokeColor=#000000;strokeWidth=3;" parent="1" target="35" edge="1">
                    <mxGeometry relative="1" as="geometry">
                        <mxPoint x="513" y="-5" as="sourcePoint"/>
                    </mxGeometry>
                </mxCell>
                <mxCell id="31" value="&lt;font color=&quot;#000000&quot; face=&quot;Times New Roman&quot;&gt;&lt;span style=&quot;font-size: 20px&quot;&gt;&lt;b&gt;JRC Global Surface Water Mapping Layers&lt;/b&gt;&lt;/span&gt;&lt;/font&gt;" style="rounded=1;whiteSpace=wrap;html=1;fillColor=#E6E6E6;strokeColor=#000000;" parent="1" vertex="1">
                    <mxGeometry x="252" y="-33.5" width="261" height="57" as="geometry"/>
                </mxCell>
                <mxCell id="34" value="" style="edgeStyle=orthogonalEdgeStyle;html=1;strokeWidth=3;strokeColor=#000000;" parent="1" source="32" target="962" edge="1">
                    <mxGeometry relative="1" as="geometry">
                        <mxPoint x="713" y="-49.5" as="targetPoint"/>
                    </mxGeometry>
                </mxCell>
                <mxCell id="32" value="&lt;font color=&quot;#000000&quot; face=&quot;Times New Roman&quot;&gt;&lt;span style=&quot;font-size: 20px&quot;&gt;&lt;b&gt;Landsat 7 ETM Imagery&lt;/b&gt;&lt;/span&gt;&lt;/font&gt;" style="rounded=1;whiteSpace=wrap;html=1;fillColor=#E6E6E6;strokeColor=#000000;" parent="1" vertex="1">
                    <mxGeometry x="582.5" y="-216" width="261" height="46" as="geometry"/>
                </mxCell>
                <mxCell id="950" style="edgeStyle=orthogonalEdgeStyle;html=1;fontFamily=Times New Roman;fontSize=16;fontColor=#000000;strokeColor=#000000;strokeWidth=3;" parent="1" source="35" target="37" edge="1">
                    <mxGeometry relative="1" as="geometry"/>
                </mxCell>
                <mxCell id="35" value="&lt;font color=&quot;#000000&quot; face=&quot;Times New Roman&quot;&gt;&lt;span style=&quot;font-size: 20px&quot;&gt;&lt;b&gt;Water Extraction&lt;/b&gt;&lt;/span&gt;&lt;/font&gt;" style="rounded=1;whiteSpace=wrap;html=1;fillColor=#E6E6E6;strokeColor=#000000;" parent="1" vertex="1">
                    <mxGeometry x="582.5" y="-28" width="261" height="46" as="geometry"/>
                </mxCell>
                <mxCell id="41" style="edgeStyle=orthogonalEdgeStyle;html=1;entryX=0.5;entryY=0;entryDx=0;entryDy=0;fontFamily=Times New Roman;fontSize=20;fontColor=#000000;strokeColor=#000000;strokeWidth=3;" parent="1" source="37" target="40" edge="1">
                    <mxGeometry relative="1" as="geometry"/>
                </mxCell>
                <mxCell id="37" value="&lt;font color=&quot;#000000&quot; face=&quot;Times New Roman&quot;&gt;&lt;span style=&quot;font-size: 20px&quot;&gt;&lt;b&gt;Lake Extraction&lt;/b&gt;&lt;/span&gt;&lt;/font&gt;" style="rounded=1;whiteSpace=wrap;html=1;fillColor=#E6E6E6;strokeColor=#000000;" parent="1" vertex="1">
                    <mxGeometry x="582.5" y="51.5" width="261" height="46" as="geometry"/>
                </mxCell>
                <mxCell id="44" value="" style="edgeStyle=orthogonalEdgeStyle;html=1;fontFamily=Times New Roman;fontSize=16;fontColor=#000000;strokeColor=#000000;strokeWidth=3;" parent="1" source="40" target="5" edge="1">
                    <mxGeometry relative="1" as="geometry"/>
                </mxCell>
                <mxCell id="956" style="edgeStyle=orthogonalEdgeStyle;html=1;entryX=1;entryY=0.5;entryDx=0;entryDy=0;fontFamily=Times New Roman;fontSize=16;fontColor=#000000;strokeColor=#000000;strokeWidth=3;exitX=1;exitY=0.5;exitDx=0;exitDy=0;" parent="1" source="40" target="952" edge="1">
                    <mxGeometry relative="1" as="geometry">
                        <Array as="points">
                            <mxPoint x="1026" y="153"/>
                            <mxPoint x="1026" y="565"/>
                        </Array>
                    </mxGeometry>
                </mxCell>
                <mxCell id="40" value="&lt;font color=&quot;#000000&quot; face=&quot;Times New Roman&quot;&gt;&lt;span style=&quot;font-size: 20px&quot;&gt;&lt;b&gt;Surface Reflectance of global lakes&lt;br&gt;(Blue, Green, Red, Nir bands)&lt;br&gt;&lt;/b&gt;&lt;/span&gt;&lt;/font&gt;" style="rounded=1;whiteSpace=wrap;html=1;fillColor=#E6E6E6;strokeColor=#000000;" parent="1" vertex="1">
                    <mxGeometry x="553" y="125" width="320" height="56" as="geometry"/>
                </mxCell>
                <mxCell id="42" value="Occurrence ≥ 25%" style="text;html=1;strokeColor=none;fillColor=none;align=center;verticalAlign=middle;whiteSpace=wrap;rounded=0;fontFamily=Times New Roman;fontSize=16;fontColor=#000000;fontStyle=1" parent="1" vertex="1">
                    <mxGeometry x="553" y="-61" width="170" height="30" as="geometry"/>
                </mxCell>
                <mxCell id="43" value="Area ≥ 5 km&lt;sup style=&quot;font-size: 16px&quot;&gt;2&lt;/sup&gt;" style="text;html=1;strokeColor=none;fillColor=none;align=center;verticalAlign=middle;whiteSpace=wrap;rounded=0;fontFamily=Times New Roman;fontSize=16;fontColor=#000000;fontStyle=1" parent="1" vertex="1">
                    <mxGeometry x="693" y="18" width="170" height="30" as="geometry"/>
                </mxCell>
                <mxCell id="951" style="edgeStyle=orthogonalEdgeStyle;html=1;fontFamily=Times New Roman;fontSize=16;fontColor=#000000;strokeColor=#000000;strokeWidth=3;" parent="1" source="946" target="949" edge="1">
                    <mxGeometry relative="1" as="geometry"/>
                </mxCell>
                <mxCell id="946" value="&lt;font color=&quot;#000000&quot; face=&quot;Times New Roman&quot;&gt;&lt;span style=&quot;font-size: 20px&quot;&gt;&lt;b&gt;Deep learning algorithms (ResNet, MLPNN)&lt;/b&gt;&lt;/span&gt;&lt;/font&gt;" style="rounded=1;whiteSpace=wrap;html=1;fillColor=#E6E6E6;strokeColor=#000000;" parent="1" vertex="1">
                    <mxGeometry x="516" y="396" width="397" height="46" as="geometry"/>
                </mxCell>
                <mxCell id="953" style="edgeStyle=orthogonalEdgeStyle;html=1;fontFamily=Times New Roman;fontSize=16;fontColor=#000000;strokeColor=#000000;strokeWidth=3;" parent="1" source="949" target="952" edge="1">
                    <mxGeometry relative="1" as="geometry"/>
                </mxCell>
                <mxCell id="949" value="&lt;font color=&quot;#000000&quot; face=&quot;Times New Roman&quot;&gt;&lt;span style=&quot;font-size: 20px&quot;&gt;&lt;b&gt;Model evaluation (R&lt;sup&gt;2&lt;/sup&gt;, MAE, RMSE)&lt;/b&gt;&lt;/span&gt;&lt;/font&gt;" style="rounded=1;whiteSpace=wrap;html=1;fillColor=#E6E6E6;strokeColor=#000000;" parent="1" vertex="1">
                    <mxGeometry x="516" y="469" width="397" height="46" as="geometry"/>
                </mxCell>
                <mxCell id="952" value="&lt;font color=&quot;#000000&quot; face=&quot;Times New Roman&quot;&gt;&lt;span style=&quot;font-size: 20px&quot;&gt;&lt;b&gt;Application in 1278 Chinese lakes&lt;/b&gt;&lt;/span&gt;&lt;/font&gt;" style="rounded=1;whiteSpace=wrap;html=1;fillColor=#E6E6E6;strokeColor=#000000;" parent="1" vertex="1">
                    <mxGeometry x="519.88" y="542" width="389.25" height="46" as="geometry"/>
                </mxCell>
                <mxCell id="957" value="&lt;font color=&quot;#000000&quot; face=&quot;Times New Roman&quot;&gt;&lt;span style=&quot;font-size: 20px&quot;&gt;&lt;b&gt;Landsat 5 TM Imagery&lt;/b&gt;&lt;/span&gt;&lt;/font&gt;" style="rounded=1;whiteSpace=wrap;html=1;fillColor=#E6E6E6;strokeColor=#000000;" vertex="1" parent="1">
                    <mxGeometry x="252" y="-216" width="261" height="46" as="geometry"/>
                </mxCell>
                <mxCell id="958" value="&lt;font color=&quot;#000000&quot; face=&quot;Times New Roman&quot;&gt;&lt;span style=&quot;font-size: 20px&quot;&gt;&lt;b&gt;Landsat 8 OLI Imagery&lt;/b&gt;&lt;/span&gt;&lt;/font&gt;" style="rounded=1;whiteSpace=wrap;html=1;fillColor=#E6E6E6;strokeColor=#000000;" vertex="1" parent="1">
                    <mxGeometry x="920" y="-216" width="261" height="46" as="geometry"/>
                </mxCell>
                <mxCell id="960" value="" style="edgeStyle=orthogonalEdgeStyle;html=1;strokeWidth=3;strokeColor=#000000;exitX=0.5;exitY=1;exitDx=0;exitDy=0;" edge="1" parent="1" source="957" target="962">
                    <mxGeometry relative="1" as="geometry">
                        <mxPoint x="723" y="-18" as="targetPoint"/>
                        <mxPoint x="1042.5" y="-65" as="sourcePoint"/>
                    </mxGeometry>
                </mxCell>
                <mxCell id="961" value="&lt;font color=&quot;#000000&quot; face=&quot;Times New Roman&quot;&gt;&lt;span style=&quot;font-size: 20px&quot;&gt;&lt;b&gt;NDWI &amp;gt; 0&lt;/b&gt;&lt;/span&gt;&lt;/font&gt;" style="rounded=1;whiteSpace=wrap;html=1;fillColor=#E6E6E6;strokeColor=#000000;" vertex="1" parent="1">
                    <mxGeometry x="920" y="-109" width="114" height="46" as="geometry"/>
                </mxCell>
                <mxCell id="962" value="&lt;font color=&quot;#000000&quot; face=&quot;Times New Roman&quot;&gt;&lt;span style=&quot;font-size: 20px&quot;&gt;&lt;b&gt;Landsat series (1990-2020)&lt;/b&gt;&lt;/span&gt;&lt;/font&gt;" style="rounded=1;whiteSpace=wrap;html=1;fillColor=#E6E6E6;strokeColor=#000000;" vertex="1" parent="1">
                    <mxGeometry x="582.5" y="-109" width="261" height="46" as="geometry"/>
                </mxCell>
                <mxCell id="963" value="" style="edgeStyle=orthogonalEdgeStyle;html=1;strokeWidth=3;strokeColor=#000000;exitX=0.5;exitY=1;exitDx=0;exitDy=0;endArrow=none;" edge="1" parent="1" source="958" target="962">
                    <mxGeometry relative="1" as="geometry">
                        <mxPoint x="713" y="-28" as="targetPoint"/>
                        <mxPoint x="1034.5" y="-170" as="sourcePoint"/>
                    </mxGeometry>
                </mxCell>
                <mxCell id="964" value="" style="edgeStyle=orthogonalEdgeStyle;html=1;strokeWidth=3;strokeColor=#000000;entryX=0.5;entryY=0;entryDx=0;entryDy=0;exitX=0.5;exitY=1;exitDx=0;exitDy=0;" edge="1" parent="1" source="962" target="35">
                    <mxGeometry relative="1" as="geometry">
                        <mxPoint x="723" y="-108" as="targetPoint"/>
                        <mxPoint x="713" y="-89" as="sourcePoint"/>
                    </mxGeometry>
                </mxCell>
                <mxCell id="965" style="edgeStyle=orthogonalEdgeStyle;html=1;entryX=0;entryY=0.5;entryDx=0;entryDy=0;fontFamily=Times New Roman;fontSize=20;fontColor=#000000;strokeColor=#000000;strokeWidth=3;" edge="1" parent="1" source="962" target="961">
                    <mxGeometry relative="1" as="geometry">
                        <mxPoint x="723" y="107.5" as="sourcePoint"/>
                        <mxPoint x="723" y="135" as="targetPoint"/>
                    </mxGeometry>
                </mxCell>
                <mxCell id="968" value="&lt;font color=&quot;#000000&quot; face=&quot;Times New Roman&quot;&gt;&lt;span style=&quot;font-size: 20px&quot;&gt;&lt;b&gt;HydroLakes&lt;/b&gt;&lt;/span&gt;&lt;/font&gt;" style="rounded=1;whiteSpace=wrap;html=1;fillColor=#E6E6E6;strokeColor=#000000;" vertex="1" parent="1">
                    <mxGeometry x="1044" y="-109" width="137" height="46" as="geometry"/>
                </mxCell>
                <mxCell id="969" style="edgeStyle=orthogonalEdgeStyle;html=1;fontFamily=Times New Roman;fontSize=20;fontColor=#000000;strokeColor=#000000;strokeWidth=3;exitX=0.5;exitY=1;exitDx=0;exitDy=0;" edge="1" parent="1" source="961" target="30">
                    <mxGeometry relative="1" as="geometry">
                        <mxPoint x="930" y="84.59999999999991" as="sourcePoint"/>
                        <mxPoint x="853.5" y="84.5" as="targetPoint"/>
                    </mxGeometry>
                </mxCell>
                <mxCell id="970" style="edgeStyle=orthogonalEdgeStyle;html=1;fontFamily=Times New Roman;fontSize=20;fontColor=#000000;strokeColor=#000000;strokeWidth=3;" edge="1" parent="1" source="968" target="30">
                    <mxGeometry relative="1" as="geometry">
                        <mxPoint x="987" y="-53" as="sourcePoint"/>
                        <mxPoint x="1052" y="52" as="targetPoint"/>
                    </mxGeometry>
                </mxCell>
                <mxCell id="971" value="2 km buffer" style="text;html=1;strokeColor=none;fillColor=none;align=center;verticalAlign=middle;whiteSpace=wrap;rounded=0;fontFamily=Times New Roman;fontSize=16;fontColor=#000000;fontStyle=1" vertex="1" parent="1">
                    <mxGeometry x="825" y="46" width="170" height="30" as="geometry"/>
                </mxCell>
            </root>
        </mxGraphModel>
    </diagram>
</mxfile>